HIERARCHY
ROOT Hips
{
	OFFSET 0.000000 88.474243 0.000000
	CHANNELS 6 Xposition Yposition Zposition Zrotation Yrotation Xrotation 
	JOINT Hips_Spine
	{
		OFFSET 0.000000 0.000000 0.000000
		CHANNELS 3 Zrotation Yrotation Xrotation
		JOINT Spine
		{
			OFFSET 0.005100 8.711998 -0.691000
			CHANNELS 3 Zrotation Yrotation Xrotation
			JOINT Spine1
			{
				OFFSET -0.009200 8.660301 -1.275000
				CHANNELS 3 Zrotation Yrotation Xrotation
				JOINT Spine2
				{
					OFFSET 0.006300 9.852501 -1.857000
					CHANNELS 3 Zrotation Yrotation Xrotation
					JOINT Spine2_Neck
					{
						OFFSET 0.000000 0.000000 0.000000
						CHANNELS 3 Zrotation Yrotation Xrotation
						JOINT Neck
						{
							OFFSET 0.016300 11.420799 -0.263300
							CHANNELS 3 Zrotation Yrotation Xrotation
							End Site #name: Head
							{
								OFFSET -0.019200 9.262405 2.362500
							}
						}
					}
					JOINT Spine2_LeftShoulder
					{
						OFFSET 0.000000 0.000000 0.000000
						CHANNELS 3 Zrotation Yrotation Xrotation
						JOINT LeftShoulder
						{
							OFFSET 5.616900 6.732201 -0.345700
							CHANNELS 3 Zrotation Yrotation Xrotation
							JOINT LeftArm
							{
								OFFSET 10.664888 -0.183372 -2.440700
								CHANNELS 3 Zrotation Yrotation Xrotation
								JOINT LeftForeArm
								{
									OFFSET 27.459126 0.000000 0.000000
									CHANNELS 3 Zrotation Yrotation Xrotation
									End Site #name: LeftHand
									{
										OFFSET 21.306858 0.000000 0.000000
									}
								}
							}
						}
					}
					JOINT Spine2_RightShoulder
					{
						OFFSET 0.000000 0.000000 0.000000
						CHANNELS 3 Zrotation Yrotation Xrotation
						JOINT RightShoulder
						{
							OFFSET -5.580300 6.737503 -0.344400
							CHANNELS 3 Zrotation Yrotation Xrotation
							JOINT RightArm
							{
								OFFSET -10.679335 -0.188484 -2.383900
								CHANNELS 3 Zrotation Yrotation Xrotation
								JOINT RightForeArm
								{
									OFFSET -27.503529 0.000000 0.000000
									CHANNELS 3 Zrotation Yrotation Xrotation
									End Site #name: RightHand
									{
										OFFSET -21.306808 0.000000 0.000000
									}
								}
							}
						}
					}
				}
			}
		}
	}
	JOINT Hips_LeftUpLeg
	{
		OFFSET 0.000000 0.000000 0.000000
		CHANNELS 3 Zrotation Yrotation Xrotation
		JOINT LeftUpLeg
		{
			OFFSET 6.857700 -6.739601 0.312100
			CHANNELS 3 Zrotation Yrotation Xrotation
			JOINT LeftLeg
			{
				OFFSET -0.367590 -34.731552 -4.572400
				CHANNELS 3 Zrotation Yrotation Xrotation
				End Site #name: LeftFoot
				{
					OFFSET 0.367590 -34.656704 -6.067400
				}
			}
		}
	}
	JOINT Hips_RightUpLeg
	{
		OFFSET 0.000000 0.000000 0.000000
		CHANNELS 3 Zrotation Yrotation Xrotation
		JOINT RightUpLeg
		{
			OFFSET -6.876100 -6.733299 0.301000
			CHANNELS 3 Zrotation Yrotation Xrotation
			JOINT RightLeg
			{
				OFFSET 0.347353 -34.795158 -4.515900
				CHANNELS 3 Zrotation Yrotation Xrotation
				End Site #name: RightFoot
				{
					OFFSET -0.347353 -34.589367 -6.070300
				}
			}
		}
	}
}
MOTION
Frames: 15
Frame Time: 0.041667
0.046906 -0.034036 -0.091611 -6.180044 35.983067 -3.172363 -0.000000 -0.000000 -0.000000 -2.739680 -2.021435 -0.072905 3.525603 -0.204205 2.788082 0.000000 0.000000 0.000000 4.139935 -0.364965 1.202947 -2.464085 -3.835228 -0.987569 2.123330 0.672035 1.967664 -8.513300 -10.776236 2.288493 -82.190228 5.020065 -1.791070 -0.609159 -10.385818 1.724615 3.161644 -0.519112 1.889334 11.685668 12.507695 6.045981 36.295575 24.996101 -19.011656 -152.276687 84.113323 -147.303671 0.000000 -0.000000 0.000000 -0.260555 14.089935 -18.240997 -5.207578 -23.201478 2.980434 0.000000 -0.000000 -0.000000 2.202011 -10.135121 -9.355800 -1.158052 -4.013864 9.296609 
-0.151724 -0.179216 -0.211104 -6.365362 28.844219 -1.192869 -0.000000 -0.000000 -0.000000 -2.611987 -2.125415 0.963539 4.990411 0.210920 2.192133 0.000000 0.000000 0.000000 4.529969 -0.300178 2.928847 -2.152558 -4.626292 -3.356510 3.131557 0.546444 1.080030 -10.932480 -10.169538 2.553753 -82.038264 -5.196913 -5.791620 -2.449912 -3.175765 0.874293 4.644061 -0.334729 3.098188 14.615829 12.791626 4.711181 36.954426 29.301086 -24.041905 -176.711140 72.835615 -172.029813 0.000000 0.000000 -0.000000 0.701976 15.286617 -19.273000 -4.355432 -19.908851 2.261356 0.000000 -0.000000 -0.000000 1.952933 -5.548896 -7.873416 2.863712 0.686699 7.447206 
-0.154425 -0.235476 -0.311487 -7.264623 27.091295 -1.151068 -0.000000 -0.000000 -0.000000 -0.630619 -2.438692 -0.989356 5.866066 0.358205 2.492771 0.000000 0.000000 0.000000 5.254561 -0.511963 3.429726 -2.305380 -6.281248 -3.773348 3.365466 0.609861 1.481441 -10.508474 -4.646195 -0.900105 -80.956252 -7.688771 -9.245020 -2.227979 4.359619 0.477566 5.326910 -0.302935 3.147545 16.768594 11.780585 3.993039 38.850361 31.033948 -24.591392 -179.533711 60.151125 -174.536001 0.000000 0.000000 -0.000000 2.008989 16.790782 -19.171943 -4.039839 -17.519717 4.530358 0.000000 0.000000 -0.000000 2.033134 -8.378092 -6.326017 4.515482 2.764577 6.144813 
-0.151584 -0.316161 -0.411865 -7.952595 25.045368 -1.997062 -0.000000 -0.000000 -0.000000 1.227854 -2.376457 -1.343326 5.868677 0.228701 2.710135 0.000000 0.000000 0.000000 5.305426 -0.608870 3.620029 -2.143665 -6.469392 -4.117538 3.385412 0.420568 1.328306 -11.412395 0.471224 -4.396068 -81.515807 -9.871523 -10.680175 -2.324398 8.483747 0.362073 5.407500 -0.498538 3.421350 16.963719 7.418439 4.258265 36.267073 34.495708 -29.639172 -179.972124 53.830784 -174.764581 0.000000 0.000000 -0.000000 2.606545 17.866922 -18.744677 -3.607984 -16.800728 5.865804 0.000000 0.000000 -0.000000 2.186039 -11.112094 -5.181986 5.684972 4.328985 5.598843 
-0.149677 -0.394419 -0.507816 -8.258145 23.268065 -2.363416 -0.000000 -0.000000 -0.000000 2.585046 -2.130562 -1.067092 5.526274 0.122174 2.866355 0.000000 0.000000 0.000000 5.009147 -0.615379 3.776612 -2.046029 -6.823430 -4.210553 3.172685 0.206438 1.201494 -12.156224 3.097401 -6.014291 -81.962088 -12.036838 -12.013506 -2.298441 11.069549 0.287918 5.062103 -0.627050 3.649957 17.581014 4.607159 4.427277 35.762331 36.542545 -31.938403 179.896688 51.271137 -174.978462 0.000000 0.000000 -0.000000 2.982522 18.727020 -18.587593 -3.453486 -16.138940 6.671219 0.000000 0.000000 -0.000000 2.299804 -13.022166 -4.439722 5.839286 4.985777 5.488984 
-0.146072 -0.455331 -0.599277 -8.342189 22.098893 -2.228010 -0.000000 -0.000000 -0.000000 3.393678 -1.785703 -0.763014 4.829204 0.043183 2.865908 0.000000 0.000000 0.000000 4.556540 -0.595562 3.897032 -2.241664 -7.509475 -3.965894 2.866690 0.013576 1.231442 -12.312475 3.608809 -6.094044 -81.408926 -13.531850 -12.116157 -2.260375 11.976046 0.262002 4.528791 -0.682131 3.758727 18.259543 4.363496 4.562341 37.516549 36.366770 -30.433189 179.972274 51.595061 -175.058793 0.000000 0.000000 -0.000000 3.126418 19.079581 -18.766413 -3.467045 -15.784144 6.972092 0.000000 0.000000 -0.000000 2.569850 -13.611045 -4.386701 5.383269 4.795216 5.870376 
-0.134861 -0.503568 -0.686833 -8.307714 21.516336 -1.776041 -0.000000 -0.000000 -0.000000 3.814883 -1.582615 -0.409314 4.270532 -0.036873 2.801489 0.000000 0.000000 0.000000 4.156517 -0.549719 3.950125 -2.551997 -7.854241 -3.873637 2.577006 -0.090818 1.347059 -12.286603 4.044473 -5.609452 -81.037146 -14.048030 -11.870366 -2.225011 12.007291 0.292289 4.060257 -0.722249 3.710890 18.902202 5.465056 4.980267 40.098873 34.397942 -27.140127 -179.801541 53.291099 -174.957678 0.000000 0.000000 -0.000000 3.129173 18.971529 -19.050368 -3.493715 -15.825974 6.813404 0.000000 0.000000 -0.000000 2.866625 -13.951707 -4.488792 4.782296 4.404819 6.040265 
-0.112938 -0.549016 -0.769795 -8.252317 21.397274 -1.295058 -0.000000 -0.000000 -0.000000 3.967364 -1.577301 -0.360605 3.945024 -0.072533 2.706348 0.000000 0.000000 0.000000 3.897724 -0.512930 3.938296 -2.877663 -7.774659 -4.163891 2.385261 -0.110020 1.434551 -12.237186 4.025226 -5.042249 -81.383951 -13.999460 -12.150313 -2.206772 11.891821 0.332750 3.753802 -0.741541 3.598962 19.135685 6.907951 5.715800 42.023039 32.166157 -23.984760 -179.463085 55.319245 -174.709912 0.000000 0.000000 -0.000000 3.088935 18.648086 -19.332410 -3.499990 -15.968261 6.538391 0.000000 0.000000 -0.000000 3.169573 -14.024976 -4.673970 4.203124 4.016749 6.146319 
-0.077951 -0.595651 -0.846810 -8.239001 21.576697 -0.948339 -0.000000 -0.000000 -0.000000 4.007307 -1.607584 -0.385207 3.805219 -0.070980 2.668781 0.000000 0.000000 0.000000 3.785654 -0.476319 3.903467 -3.168023 -7.699832 -4.532536 2.299425 -0.083257 1.477780 -12.267757 4.098982 -4.793681 -81.988369 -13.797638 -12.686711 -2.202833 12.054913 0.390872 3.619491 -0.739457 3.524601 19.039670 8.122824 6.379162 43.258578 29.833206 -21.518539 -179.077168 57.186089 -174.355221 0.000000 0.000000 -0.000000 3.078664 18.367731 -19.505557 -3.484873 -16.099283 6.296619 0.000000 0.000000 -0.000000 3.401645 -14.203979 -4.820530 3.793113 3.728029 6.152337 
-0.034185 -0.643298 -0.918889 -8.269648 21.813287 -0.779955 -0.000000 -0.000000 -0.000000 4.072010 -1.524741 -0.365378 3.788776 -0.053776 2.715109 0.000000 0.000000 0.000000 3.774611 -0.449386 3.913521 -3.360921 -7.781162 -4.725059 2.282028 -0.057711 1.525990 -12.291187 4.198461 -4.779424 -82.617864 -13.600648 -13.132151 -2.215048 12.323848 0.420232 3.616323 -0.725007 3.530529 18.716193 9.072942 6.835421 44.015980 28.037492 -19.595923 -178.836480 58.156305 -174.121719 0.000000 0.000000 -0.000000 3.119933 18.160185 -19.515583 -3.451221 -16.126511 6.106237 0.000000 0.000000 -0.000000 3.543358 -14.436166 -4.908939 3.596343 3.561833 6.169381 
0.015078 -0.689925 -0.987396 -8.329928 21.981586 -0.750856 -0.000000 -0.000000 -0.000000 4.109016 -1.442046 -0.311406 3.824257 -0.038672 2.813282 0.000000 0.000000 0.000000 3.807844 -0.431723 3.962039 -3.428398 -7.970579 -4.620293 2.293956 -0.048897 1.612615 -12.296122 4.362069 -4.881510 -83.058787 -13.458337 -13.311006 -2.225099 12.648989 0.437800 3.652518 -0.714455 3.593408 18.357651 9.819945 7.091706 44.439059 27.048049 -18.409441 -178.780362 58.089666 -174.060064 0.000000 0.000000 -0.000000 3.192879 18.019497 -19.437029 -3.415951 -16.059693 6.002507 0.000000 0.000000 -0.000000 3.627602 -14.496761 -4.948339 3.547332 3.439842 6.237271 
0.066671 -0.734502 -1.054327 -8.389573 22.063178 -0.777756 -0.000000 -0.000000 -0.000000 4.148574 -1.430317 -0.189950 3.857708 -0.038401 2.934498 0.000000 0.000000 0.000000 3.839195 -0.426559 4.026813 -3.430631 -8.121174 -4.550536 2.301472 -0.048428 1.758859 -12.248220 4.483969 -4.993234 -83.267472 -13.416155 -13.272525 -2.238066 12.959155 0.443940 3.673500 -0.725648 3.678162 18.081712 10.510068 7.255791 44.335574 26.850985 -18.303667 -178.855322 57.148969 -174.114817 0.000000 0.000000 -0.000000 3.273812 17.922510 -19.323109 -3.379082 -15.947695 5.942684 0.000000 0.000000 -0.000000 3.650671 -14.411197 -4.920825 3.589830 3.313579 6.236828 
0.117974 -0.777303 -1.120772 -8.441427 22.081875 -0.826164 0.000000 -0.000000 -0.000000 4.183509 -1.513352 -0.013322 3.863239 -0.057959 3.044588 0.000000 0.000000 0.000000 3.851105 -0.436833 4.098830 -3.407660 -8.211383 -4.546518 2.297584 -0.078242 1.884254 -12.146020 4.516477 -5.060670 -83.281256 -13.406799 -13.132822 -2.246374 13.230312 0.444682 3.670998 -0.760697 3.771995 17.898232 11.009288 7.330573 43.953803 27.293588 -18.973306 -179.009296 55.633195 -174.225657 0.000000 0.000000 -0.000000 3.345237 17.853176 -19.207391 -3.347564 -15.826633 5.905138 0.000000 0.000000 -0.000000 3.642439 -14.118109 -4.853998 3.690734 3.197566 6.161412 
0.169270 -0.819078 -1.187241 -8.478695 22.072189 -0.870236 0.000000 -0.000000 -0.000000 4.215853 -1.640302 0.187131 3.829835 -0.093300 3.135448 0.000000 0.000000 0.000000 3.831987 -0.454532 4.158287 -3.374560 -8.209107 -4.566380 2.276209 -0.132442 1.961720 -12.011337 4.507906 -5.082892 -83.242109 -13.430740 -12.967118 -2.248395 13.468013 0.447712 3.633736 -0.818098 3.840696 17.773017 11.303014 7.332055 43.528074 28.035939 -19.887457 -179.197875 53.928165 -174.363546 0.000000 0.000000 -0.000000 3.405179 17.802617 -19.107491 -3.327541 -15.723707 5.885134 0.000000 0.000000 -0.000000 3.627728 -13.651507 -4.761132 3.797460 3.088884 6.025931 
0.220434 -0.860747 -1.254345 -8.508032 22.074811 -0.908228 0.000000 -0.000000 -0.000000 4.250688 -1.788829 0.373355 3.754821 -0.137440 3.196494 0.000000 0.000000 0.000000 3.785518 -0.479038 4.200079 -3.340401 -8.172717 -4.596450 2.237496 -0.203314 2.005449 -11.867086 4.478760 -5.058686 -83.171318 -13.478211 -12.789802 -2.250104 13.686346 0.447706 3.564625 -0.884111 3.887468 17.631912 11.354088 7.318069 43.134394 28.773708 -20.783661 -179.389784 52.287793 -174.501653 0.000000 0.000000 -0.000000 3.451045 17.768061 -19.031323 -3.312070 -15.643552 5.876398 0.000000 0.000000 -0.000000 3.611259 -13.172769 -4.672791 3.904162 3.002699 5.882019 
